ffmpeg started on 2026-01-16 at 16:48:33
Report written to "D:\Convert\FFMetrics\reports\ssim_report-6.txt"
Log level: 32
Command line:
ffmpeg -hide_banner -nostdin -r 24000/1001 -i "F:\\Convert\\files\\[DC] Make Heroine ga Oosugiru - 07_Telegram_HEVC(HB-7).mkv" -r 24000/1001 -i "F:\\Convert\\files\\[DC] Make Heroine ga Oosugiru - 07_Telegram.mp4" -lavfi "[0:v]settb=AVTB,setpts=PTS-STARTPTS,format=pix_fmts=yuv420p10le,fps=24000/1001,scale=1920:1080:flags=lanczos:param0=3:out_range=limited:out_color_matrix=bt709:out_chroma_loc=left,setsar=1/1,setdar=(1920/1080)*(1/1),colorspace=format=yuv420p10:range=tv:primaries=bt709:trc=bt709:space=bt709:fast=0[main];[1:v]settb=AVTB,setpts=PTS-STARTPTS,format=pix_fmts=yuv420p,fps=24000/1001,scale=1920:1080:flags=lanczos:param0=3:out_range=limited:out_color_matrix=bt709:out_chroma_loc=left,setsar=1.000,setdar=1.778,colorspace=format=yuv420p:range=tv:primaries=bt709:trc=bt709:space=bt709:fast=0[ref];[main][ref]ssim=eof_action=endall:stats_file='D\\:/Convert/FFMetrics/logs/ssim_logfile-6.txt'" -f null -
Input #0, matroska,webm, from 'F:\Convert\files\[DC] Make Heroine ga Oosugiru - 07_Telegram_HEVC(HB-7).mkv':
  Metadata:
    creation_time   : 2026-01-16T08:23:44.000000Z
    ENCODER         : Lavf61.7.100
  Duration: 00:24:06.81, start: -0.021000, bitrate: 943 kb/s
  Stream #0:0: Video: hevc (Main 10), yuv420p10le(tv, bt709), 1920x1080 [SAR 1:1 DAR 16:9], 23.98 fps, 23.98 tbr, 1k tbn (default)
      Metadata:
        BPS             : 746110
        DURATION        : 00:24:06.569708333
        NUMBER_OF_FRAMES: 34683
        NUMBER_OF_BYTES : 134912625
        _STATISTICS_WRITING_APP: mkvpropedit v94.0 ('Initiate') 64-bit
        _STATISTICS_WRITING_DATE_UTC: 2026-01-16 13:46:56
        _STATISTICS_TAGS: BPS DURATION NUMBER_OF_FRAMES NUMBER_OF_BYTES
  Stream #0:1: Audio: aac (LC), 48000 Hz, stereo, fltp (default)
      Metadata:
        title           : Stereo
        BPS             : 193190
        DURATION        : 00:24:06.784000000
        NUMBER_OF_FRAMES: 67819
        NUMBER_OF_BYTES : 34938166
        _STATISTICS_WRITING_APP: mkvpropedit v94.0 ('Initiate') 64-bit
        _STATISTICS_WRITING_DATE_UTC: 2026-01-16 13:46:56
        _STATISTICS_TAGS: BPS DURATION NUMBER_OF_FRAMES NUMBER_OF_BYTES
Input #1, mov,mp4,m4a,3gp,3g2,mj2, from 'F:\Convert\files\[DC] Make Heroine ga Oosugiru - 07_Telegram.mp4':
  Metadata:
    major_brand     : isom
    minor_version   : 512
    compatible_brands: isomiso2avc1mp41
    encoder         : Lavf60.16.100
  Duration: 00:24:06.74, start: 0.000000, bitrate: 3764 kb/s
  Stream #1:0[0x1](und): Video: h264 (High) (avc1 / 0x31637661), yuv420p(tv, bt709, progressive), 1920x1080 [SAR 1:1 DAR 16:9], 3616 kb/s, 23.98 fps, 23.98 tbr, 24k tbn (default)
      Metadata:
        handler_name    : VideoHandler
        vendor_id       : [0][0][0][0]
        encoder         : Lavc60.31.102 h264_qsv
  Stream #1:1[0x2](und): Audio: aac (HE-AACv2) (mp4a / 0x6134706D), 48000 Hz, stereo, fltp, 144 kb/s (default)
      Metadata:
        handler_name    : SoundHandler
        vendor_id       : [0][0][0][0]
Stream mapping:
  Stream #0:0 (hevc) -> settb:default
  Stream #1:0 (h264) -> settb:default
  ssim:default -> Stream #0:0 (wrapped_avframe)
  Stream #0:1 -> #0:1 (aac (native) -> pcm_s16le (native))
Output #0, null, to 'pipe:':
  Metadata:
    encoder         : Lavf61.7.100
  Stream #0:0: Video: wrapped_avframe, yuv420p10le(tv, bt709, progressive), 1920x1080 [SAR 1:1 DAR 16:9], q=2-31, 200 kb/s, 23.98 fps, 23.98 tbn
      Metadata:
        encoder         : Lavc61.19.100 wrapped_avframe
  Stream #0:1: Audio: pcm_s16le, 48000 Hz, stereo, s16, 1536 kb/s (default)
      Metadata:
        title           : Stereo
        BPS             : 193190
        DURATION        : 00:24:06.784000000
        NUMBER_OF_FRAMES: 67819
        NUMBER_OF_BYTES : 34938166
        _STATISTICS_WRITING_APP: mkvpropedit v94.0 ('Initiate') 64-bit
        _STATISTICS_WRITING_DATE_UTC: 2026-01-16 13:46:56
        _STATISTICS_TAGS: BPS DURATION NUMBER_OF_FRAMES NUMBER_OF_BYTES
        encoder         : Lavc61.19.100 pcm_s16le
frame=  125 fps=0.0 q=-0.0 size=N/A time=00:00:05.21 bitrate=N/A speed=10.2x    frame=  316 fps=309 q=-0.0 size=N/A time=00:00:13.17 bitrate=N/A speed=12.9x    frame=  501 fps=326 q=-0.0 size=N/A time=00:00:20.89 bitrate=N/A speed=13.6x    frame=  691 fps=335 q=-0.0 size=N/A time=00:00:28.82 bitrate=N/A speed=  14x    frame=  877 fps=341 q=-0.0 size=N/A time=00:00:36.57 bitrate=N/A speed=14.2x    frame= 1013 fps=328 q=-0.0 size=N/A time=00:00:42.25 bitrate=N/A speed=13.7x    frame= 1170 fps=325 q=-0.0 size=N/A time=00:00:48.79 bitrate=N/A speed=13.6x    frame= 1318 fps=320 q=-0.0 size=N/A time=00:00:54.97 bitrate=N/A speed=13.3x    frame= 1484 fps=320 q=-0.0 size=N/A time=00:01:01.89 bitrate=N/A speed=13.4x    frame= 1626 fps=316 q=-0.0 size=N/A time=00:01:07.81 bitrate=N/A speed=13.2x    frame= 1782 fps=314 q=-0.0 size=N/A time=00:01:14.32 bitrate=N/A speed=13.1x    frame= 1943 fps=314 q=-0.0 size=N/A time=00:01:21.03 bitrate=N/A speed=13.1x    frame= 2080 fps=311 q=-0.0 size=N/A time=00:01:26.75 bitrate=N/A speed=  13x    frame= 2213 fps=307 q=-0.0 size=N/A time=00:01:32.30 bitrate=N/A speed=12.8x    frame= 2367 fps=306 q=-0.0 size=N/A time=00:01:38.72 bitrate=N/A speed=12.8x    frame= 2501 fps=303 q=-0.0 size=N/A time=00:01:44.31 bitrate=N/A speed=12.7x    frame= 2652 fps=303 q=-0.0 size=N/A time=00:01:50.61 bitrate=N/A speed=12.6x    frame= 2824 fps=305 q=-0.0 size=N/A time=00:01:57.78 bitrate=N/A speed=12.7x    frame= 2999 fps=306 q=-0.0 size=N/A time=00:02:05.08 bitrate=N/A speed=12.8x    frame= 3183 fps=309 q=-0.0 size=N/A time=00:02:12.75 bitrate=N/A speed=12.9x    frame= 3371 fps=312 q=-0.0 size=N/A time=00:02:20.59 bitrate=N/A speed=  13x    frame= 3565 fps=314 q=-0.0 size=N/A time=00:02:28.69 bitrate=N/A speed=13.1x    frame= 3749 fps=316 q=-0.0 size=N/A time=00:02:36.36 bitrate=N/A speed=13.2x    frame= 3943 fps=319 q=-0.0 size=N/A time=00:02:44.45 bitrate=N/A speed=13.3x    frame= 4129 fps=321 q=-0.0 size=N/A time=00:02:52.21 bitrate=N/A speed=13.4x    frame= 4312 fps=322 q=-0.0 size=N/A time=00:02:59.84 bitrate=N/A speed=13.4x    frame= 4499 fps=323 q=-0.0 size=N/A time=00:03:07.64 bitrate=N/A speed=13.5x    frame= 4692 fps=325 q=-0.0 size=N/A time=00:03:15.69 bitrate=N/A speed=13.6x    frame= 4876 fps=326 q=-0.0 size=N/A time=00:03:23.36 bitrate=N/A speed=13.6x    frame= 5068 fps=328 q=-0.0 size=N/A time=00:03:31.37 bitrate=N/A speed=13.7x    frame= 5245 fps=328 q=-0.0 size=N/A time=00:03:38.76 bitrate=N/A speed=13.7x    frame= 5427 fps=329 q=-0.0 size=N/A time=00:03:46.35 bitrate=N/A speed=13.7x    frame= 5616 fps=330 q=-0.0 size=N/A time=00:03:54.23 bitrate=N/A speed=13.8x    frame= 5809 fps=331 q=-0.0 size=N/A time=00:04:02.28 bitrate=N/A speed=13.8x    frame= 5986 fps=332 q=-0.0 size=N/A time=00:04:09.66 bitrate=N/A speed=13.8x    frame= 6176 fps=333 q=-0.0 size=N/A time=00:04:17.59 bitrate=N/A speed=13.9x    frame= 6364 fps=334 q=-0.0 size=N/A time=00:04:25.43 bitrate=N/A speed=13.9x    frame= 6548 fps=334 q=-0.0 size=N/A time=00:04:33.10 bitrate=N/A speed=13.9x    frame= 6740 fps=335 q=-0.0 size=N/A time=00:04:41.11 bitrate=N/A speed=  14x    frame= 6923 fps=336 q=-0.0 size=N/A time=00:04:48.74 bitrate=N/A speed=  14x    frame= 7107 fps=336 q=-0.0 size=N/A time=00:04:56.42 bitrate=N/A speed=  14x    frame= 7299 fps=337 q=-0.0 size=N/A time=00:05:04.42 bitrate=N/A speed=14.1x    frame= 7477 fps=337 q=-0.0 size=N/A time=00:05:11.85 bitrate=N/A speed=14.1x    frame= 7649 fps=337 q=-0.0 size=N/A time=00:05:19.02 bitrate=N/A speed=14.1x    frame= 7836 fps=338 q=-0.0 size=N/A time=00:05:26.82 bitrate=N/A speed=14.1x    frame= 8030 fps=339 q=-0.0 size=N/A time=00:05:34.91 bitrate=N/A speed=14.1x    frame= 8208 fps=339 q=-0.0 size=N/A time=00:05:42.34 bitrate=N/A speed=14.1x    frame= 8397 fps=339 q=-0.0 size=N/A time=00:05:50.22 bitrate=N/A speed=14.2x    frame= 8579 fps=340 q=-0.0 size=N/A time=00:05:57.81 bitrate=N/A speed=14.2x    frame= 8765 fps=340 q=-0.0 size=N/A time=00:06:05.57 bitrate=N/A speed=14.2x    frame= 8958 fps=340 q=-0.0 size=N/A time=00:06:13.62 bitrate=N/A speed=14.2x    frame= 9144 fps=341 q=-0.0 size=N/A time=00:06:21.38 bitrate=N/A speed=14.2x    frame= 9323 fps=341 q=-0.0 size=N/A time=00:06:28.84 bitrate=N/A speed=14.2x    frame= 9509 fps=341 q=-0.0 size=N/A time=00:06:36.60 bitrate=N/A speed=14.2x    frame= 9701 fps=342 q=-0.0 size=N/A time=00:06:44.61 bitrate=N/A speed=14.3x    frame= 9888 fps=342 q=-0.0 size=N/A time=00:06:52.41 bitrate=N/A speed=14.3x    frame=10072 fps=343 q=-0.0 size=N/A time=00:07:00.08 bitrate=N/A speed=14.3x    frame=10248 fps=343 q=-0.0 size=N/A time=00:07:07.42 bitrate=N/A speed=14.3x    frame=10438 fps=343 q=-0.0 size=N/A time=00:07:15.35 bitrate=N/A speed=14.3x    frame=10626 fps=343 q=-0.0 size=N/A time=00:07:23.19 bitrate=N/A speed=14.3x    frame=10810 fps=344 q=-0.0 size=N/A time=00:07:30.86 bitrate=N/A speed=14.3x    frame=10993 fps=344 q=-0.0 size=N/A time=00:07:38.49 bitrate=N/A speed=14.3x    frame=11177 fps=344 q=-0.0 size=N/A time=00:07:46.17 bitrate=N/A speed=14.3x    frame=11362 fps=344 q=-0.0 size=N/A time=00:07:53.89 bitrate=N/A speed=14.4x    frame=11546 fps=344 q=-0.0 size=N/A time=00:08:01.56 bitrate=N/A speed=14.4x    frame=11732 fps=345 q=-0.0 size=N/A time=00:08:09.32 bitrate=N/A speed=14.4x    frame=11915 fps=345 q=-0.0 size=N/A time=00:08:16.95 bitrate=N/A speed=14.4x    frame=12099 fps=345 q=-0.0 size=N/A time=00:08:24.62 bitrate=N/A speed=14.4x    frame=12283 fps=345 q=-0.0 size=N/A time=00:08:32.30 bitrate=N/A speed=14.4x    frame=12471 fps=345 q=-0.0 size=N/A time=00:08:40.14 bitrate=N/A speed=14.4x    frame=12657 fps=346 q=-0.0 size=N/A time=00:08:47.90 bitrate=N/A speed=14.4x    frame=12836 fps=346 q=-0.0 size=N/A time=00:08:55.36 bitrate=N/A speed=14.4x    frame=13025 fps=346 q=-0.0 size=N/A time=00:09:03.25 bitrate=N/A speed=14.4x    frame=13202 fps=346 q=-0.0 size=N/A time=00:09:10.63 bitrate=N/A speed=14.4x    frame=13386 fps=346 q=-0.0 size=N/A time=00:09:18.30 bitrate=N/A speed=14.4x    frame=13561 fps=346 q=-0.0 size=N/A time=00:09:25.60 bitrate=N/A speed=14.4x    frame=13750 fps=346 q=-0.0 size=N/A time=00:09:33.48 bitrate=N/A speed=14.4x    frame=13935 fps=346 q=-0.0 size=N/A time=00:09:41.20 bitrate=N/A speed=14.4x    frame=14110 fps=346 q=-0.0 size=N/A time=00:09:48.50 bitrate=N/A speed=14.4x    frame=14291 fps=346 q=-0.0 size=N/A time=00:09:56.05 bitrate=N/A speed=14.4x    frame=14472 fps=346 q=-0.0 size=N/A time=00:10:03.60 bitrate=N/A speed=14.4x    frame=14661 fps=347 q=-0.0 size=N/A time=00:10:11.48 bitrate=N/A speed=14.5x    frame=14836 fps=347 q=-0.0 size=N/A time=00:10:18.78 bitrate=N/A speed=14.5x    frame=15026 fps=347 q=-0.0 size=N/A time=00:10:26.70 bitrate=N/A speed=14.5x    frame=15177 fps=346 q=-0.0 size=N/A time=00:10:33.00 bitrate=N/A speed=14.4x    frame=15361 fps=346 q=-0.0 size=N/A time=00:10:40.68 bitrate=N/A speed=14.4x    frame=15545 fps=346 q=-0.0 size=N/A time=00:10:48.35 bitrate=N/A speed=14.5x    frame=15731 fps=347 q=-0.0 size=N/A time=00:10:56.11 bitrate=N/A speed=14.5x    frame=15912 fps=347 q=-0.0 size=N/A time=00:11:03.66 bitrate=N/A speed=14.5x    frame=16094 fps=347 q=-0.0 size=N/A time=00:11:11.25 bitrate=N/A speed=14.5x    frame=16282 fps=347 q=-0.0 size=N/A time=00:11:19.09 bitrate=N/A speed=14.5x    frame=16468 fps=347 q=-0.0 size=N/A time=00:11:26.85 bitrate=N/A speed=14.5x    frame=16657 fps=347 q=-0.0 size=N/A time=00:11:34.73 bitrate=N/A speed=14.5x    frame=16837 fps=347 q=-0.0 size=N/A time=00:11:42.24 bitrate=N/A speed=14.5x    frame=17029 fps=348 q=-0.0 size=N/A time=00:11:50.25 bitrate=N/A speed=14.5x    frame=17222 fps=348 q=-0.0 size=N/A time=00:11:58.30 bitrate=N/A speed=14.5x    frame=17398 fps=348 q=-0.0 size=N/A time=00:12:05.64 bitrate=N/A speed=14.5x    frame=17579 fps=348 q=-0.0 size=N/A time=00:12:13.19 bitrate=N/A speed=14.5x    frame=17749 fps=348 q=-0.0 size=N/A time=00:12:20.28 bitrate=N/A speed=14.5x    frame=17946 fps=348 q=-0.0 size=N/A time=00:12:28.49 bitrate=N/A speed=14.5x    frame=18126 fps=348 q=-0.0 size=N/A time=00:12:36.00 bitrate=N/A speed=14.5x    frame=18303 fps=348 q=-0.0 size=N/A time=00:12:43.38 bitrate=N/A speed=14.5x    frame=18485 fps=348 q=-0.0 size=N/A time=00:12:50.97 bitrate=N/A speed=14.5x    frame=18673 fps=348 q=-0.0 size=N/A time=00:12:58.81 bitrate=N/A speed=14.5x    frame=18858 fps=348 q=-0.0 size=N/A time=00:13:06.53 bitrate=N/A speed=14.5x    frame=19043 fps=348 q=-0.0 size=N/A time=00:13:14.25 bitrate=N/A speed=14.5x    frame=19230 fps=349 q=-0.0 size=N/A time=00:13:22.05 bitrate=N/A speed=14.5x    frame=19417 fps=349 q=-0.0 size=N/A time=00:13:29.85 bitrate=N/A speed=14.5x    frame=19602 fps=349 q=-0.0 size=N/A time=00:13:37.56 bitrate=N/A speed=14.5x    frame=19791 fps=349 q=-0.0 size=N/A time=00:13:45.44 bitrate=N/A speed=14.6x    frame=19978 fps=349 q=-0.0 size=N/A time=00:13:53.24 bitrate=N/A speed=14.6x    frame=20169 fps=349 q=-0.0 size=N/A time=00:14:01.21 bitrate=N/A speed=14.6x    frame=20349 fps=349 q=-0.0 size=N/A time=00:14:08.72 bitrate=N/A speed=14.6x    frame=20524 fps=349 q=-0.0 size=N/A time=00:14:16.02 bitrate=N/A speed=14.6x    frame=20705 fps=349 q=-0.0 size=N/A time=00:14:23.57 bitrate=N/A speed=14.6x    frame=20898 fps=349 q=-0.0 size=N/A time=00:14:31.62 bitrate=N/A speed=14.6x    frame=21080 fps=349 q=-0.0 size=N/A time=00:14:39.21 bitrate=N/A speed=14.6x    frame=21263 fps=349 q=-0.0 size=N/A time=00:14:46.84 bitrate=N/A speed=14.6x    frame=21456 fps=350 q=-0.0 size=N/A time=00:14:54.89 bitrate=N/A speed=14.6x    frame=21637 fps=350 q=-0.0 size=N/A time=00:15:02.44 bitrate=N/A speed=14.6x    frame=21825 fps=350 q=-0.0 size=N/A time=00:15:10.28 bitrate=N/A speed=14.6x    frame=22007 fps=350 q=-0.0 size=N/A time=00:15:17.87 bitrate=N/A speed=14.6x    frame=22199 fps=350 q=-0.0 size=N/A time=00:15:25.88 bitrate=N/A speed=14.6x    frame=22363 fps=350 q=-0.0 size=N/A time=00:15:32.72 bitrate=N/A speed=14.6x    frame=22543 fps=350 q=-0.0 size=N/A time=00:15:40.23 bitrate=N/A speed=14.6x    frame=22729 fps=350 q=-0.0 size=N/A time=00:15:47.98 bitrate=N/A speed=14.6x    frame=22908 fps=350 q=-0.0 size=N/A time=00:15:55.45 bitrate=N/A speed=14.6x    frame=23091 fps=350 q=-0.0 size=N/A time=00:16:03.08 bitrate=N/A speed=14.6x    frame=23279 fps=350 q=-0.0 size=N/A time=00:16:10.92 bitrate=N/A speed=14.6x    frame=23467 fps=350 q=-0.0 size=N/A time=00:16:18.76 bitrate=N/A speed=14.6x    frame=23645 fps=350 q=-0.0 size=N/A time=00:16:26.19 bitrate=N/A speed=14.6x    frame=23830 fps=350 q=-0.0 size=N/A time=00:16:33.90 bitrate=N/A speed=14.6x    frame=24021 fps=350 q=-0.0 size=N/A time=00:16:41.87 bitrate=N/A speed=14.6x    frame=24203 fps=350 q=-0.0 size=N/A time=00:16:49.46 bitrate=N/A speed=14.6x    frame=24388 fps=350 q=-0.0 size=N/A time=00:16:57.18 bitrate=N/A speed=14.6x    frame=24575 fps=350 q=-0.0 size=N/A time=00:17:04.98 bitrate=N/A speed=14.6x    frame=24762 fps=350 q=-0.0 size=N/A time=00:17:12.78 bitrate=N/A speed=14.6x    frame=24951 fps=351 q=-0.0 size=N/A time=00:17:20.66 bitrate=N/A speed=14.6x    frame=25133 fps=351 q=-0.0 size=N/A time=00:17:28.25 bitrate=N/A speed=14.6x    frame=25323 fps=351 q=-0.0 size=N/A time=00:17:36.18 bitrate=N/A speed=14.6x    frame=25505 fps=351 q=-0.0 size=N/A time=00:17:43.77 bitrate=N/A speed=14.6x    frame=25695 fps=351 q=-0.0 size=N/A time=00:17:51.69 bitrate=N/A speed=14.6x    frame=25873 fps=351 q=-0.0 size=N/A time=00:17:59.11 bitrate=N/A speed=14.6x    frame=26062 fps=351 q=-0.0 size=N/A time=00:18:07.00 bitrate=N/A speed=14.6x    frame=26247 fps=351 q=-0.0 size=N/A time=00:18:14.71 bitrate=N/A speed=14.6x    frame=26433 fps=351 q=-0.0 size=N/A time=00:18:22.47 bitrate=N/A speed=14.6x    frame=26618 fps=351 q=-0.0 size=N/A time=00:18:30.19 bitrate=N/A speed=14.6x    frame=26808 fps=351 q=-0.0 size=N/A time=00:18:38.11 bitrate=N/A speed=14.6x    frame=26978 fps=351 q=-0.0 size=N/A time=00:18:45.20 bitrate=N/A speed=14.6x    frame=27159 fps=351 q=-0.0 size=N/A time=00:18:52.75 bitrate=N/A speed=14.6x    frame=27339 fps=351 q=-0.0 size=N/A time=00:19:00.26 bitrate=N/A speed=14.6x    frame=27521 fps=351 q=-0.0 size=N/A time=00:19:07.85 bitrate=N/A speed=14.6x    frame=27700 fps=351 q=-0.0 size=N/A time=00:19:15.32 bitrate=N/A speed=14.6x    frame=27891 fps=351 q=-0.0 size=N/A time=00:19:23.28 bitrate=N/A speed=14.6x    frame=28076 fps=351 q=-0.0 size=N/A time=00:19:31.00 bitrate=N/A speed=14.6x    frame=28261 fps=351 q=-0.0 size=N/A time=00:19:38.71 bitrate=N/A speed=14.7x    frame=28441 fps=351 q=-0.0 size=N/A time=00:19:46.22 bitrate=N/A speed=14.7x    frame=28633 fps=351 q=-0.0 size=N/A time=00:19:54.23 bitrate=N/A speed=14.7x    frame=28800 fps=351 q=-0.0 size=N/A time=00:20:01.20 bitrate=N/A speed=14.7x    frame=28972 fps=351 q=-0.0 size=N/A time=00:20:08.37 bitrate=N/A speed=14.6x    frame=29152 fps=351 q=-0.0 size=N/A time=00:20:15.88 bitrate=N/A speed=14.6x    frame=29332 fps=351 q=-0.0 size=N/A time=00:20:23.38 bitrate=N/A speed=14.6x    frame=29500 fps=351 q=-0.0 size=N/A time=00:20:30.39 bitrate=N/A speed=14.6x    frame=29678 fps=351 q=-0.0 size=N/A time=00:20:37.81 bitrate=N/A speed=14.6x    frame=29855 fps=351 q=-0.0 size=N/A time=00:20:45.20 bitrate=N/A speed=14.6x    frame=30022 fps=351 q=-0.0 size=N/A time=00:20:52.16 bitrate=N/A speed=14.6x    frame=30189 fps=351 q=-0.0 size=N/A time=00:20:59.13 bitrate=N/A speed=14.6x    frame=30369 fps=351 q=-0.0 size=N/A time=00:21:06.64 bitrate=N/A speed=14.6x    frame=30558 fps=351 q=-0.0 size=N/A time=00:21:14.52 bitrate=N/A speed=14.6x    frame=30746 fps=351 q=-0.0 size=N/A time=00:21:22.36 bitrate=N/A speed=14.6x    frame=30934 fps=351 q=-0.0 size=N/A time=00:21:30.20 bitrate=N/A speed=14.6x    frame=31111 fps=351 q=-0.0 size=N/A time=00:21:37.58 bitrate=N/A speed=14.6x    frame=31296 fps=351 q=-0.0 size=N/A time=00:21:45.30 bitrate=N/A speed=14.6x    frame=31480 fps=351 q=-0.0 size=N/A time=00:21:52.97 bitrate=N/A speed=14.6x    frame=31661 fps=351 q=-0.0 size=N/A time=00:22:00.52 bitrate=N/A speed=14.6x    frame=31841 fps=351 q=-0.0 size=N/A time=00:22:08.03 bitrate=N/A speed=14.6x    frame=32015 fps=351 q=-0.0 size=N/A time=00:22:15.29 bitrate=N/A speed=14.6x    frame=32203 fps=351 q=-0.0 size=N/A time=00:22:23.13 bitrate=N/A speed=14.6x    frame=32385 fps=351 q=-0.0 size=N/A time=00:22:30.72 bitrate=N/A speed=14.6x    frame=32570 fps=351 q=-0.0 size=N/A time=00:22:38.44 bitrate=N/A speed=14.6x    frame=32728 fps=351 q=-0.0 size=N/A time=00:22:45.03 bitrate=N/A speed=14.6x    frame=32889 fps=350 q=-0.0 size=N/A time=00:22:51.74 bitrate=N/A speed=14.6x    frame=33072 fps=350 q=-0.0 size=N/A time=00:22:59.37 bitrate=N/A speed=14.6x    frame=33250 fps=350 q=-0.0 size=N/A time=00:23:06.80 bitrate=N/A speed=14.6x    frame=33425 fps=350 q=-0.0 size=N/A time=00:23:14.10 bitrate=N/A speed=14.6x    frame=33575 fps=350 q=-0.0 size=N/A time=00:23:20.35 bitrate=N/A speed=14.6x    frame=33731 fps=350 q=-0.0 size=N/A time=00:23:26.86 bitrate=N/A speed=14.6x    frame=33852 fps=349 q=-0.0 size=N/A time=00:23:31.91 bitrate=N/A speed=14.6x    frame=34013 fps=349 q=-0.0 size=N/A time=00:23:38.62 bitrate=N/A speed=14.6x    frame=34174 fps=349 q=-0.0 size=N/A time=00:23:45.34 bitrate=N/A speed=14.5x    frame=34324 fps=349 q=-0.0 size=N/A time=00:23:51.59 bitrate=N/A speed=14.5x    frame=34464 fps=348 q=-0.0 size=N/A time=00:23:57.43 bitrate=N/A speed=14.5x    frame=34646 fps=348 q=-0.0 size=N/A time=00:24:05.02 bitrate=N/A speed=14.5x    [Parsed_ssim_16 @ 0000012575186bc0] SSIM Y:0.994172 (22.345141) U:0.994187 (22.356063) V:0.993815 (22.086453) All:0.994115 (22.302742)
[out#0/null @ 0000012567ca1d00] video:14903KiB audio:271276KiB subtitle:0KiB other streams:0KiB global headers:0KiB muxing overhead: unknown
frame=34683 fps=348 q=-0.0 Lsize=N/A time=00:24:06.57 bitrate=N/A speed=14.5x    
